<svg xmlns="http://www.w3.org/2000/svg" xmlns:xlink="http://www.w3.org/1999/xlink" width="32px" height="32px" viewBox="0 0 32 31" version="1.1">
<g id="surface1">
<path style=" stroke:none;fill-rule:nonzero;fill:rgb(0.392157%,46.27451%,82.745099%);fill-opacity:1;" d="M 10.972656 2.992188 C 12.289062 3.09375 13.363281 4.125 14.183594 5.046875 C 14.613281 5.582031 14.613281 5.582031 14.769531 5.882812 C 15.027344 5.757812 15.28125 5.628906 15.53125 5.492188 C 18.554688 3.859375 18.554688 3.859375 19.898438 3.886719 C 20.539062 4.164062 21.050781 4.742188 21.3125 5.371094 C 21.597656 6.214844 21.550781 7.097656 21.539062 7.972656 C 21.625 7.945312 21.707031 7.917969 21.796875 7.886719 C 23.660156 7.324219 25.582031 7.390625 27.347656 8.230469 C 27.792969 8.484375 28.1875 8.785156 28.578125 9.113281 C 28.628906 9.160156 28.683594 9.203125 28.738281 9.246094 C 29.015625 9.496094 29.128906 9.671875 29.234375 10.027344 C 29.230469 10.417969 29.175781 10.519531 28.898438 10.789062 C 28.800781 10.886719 28.800781 10.886719 28.703125 10.984375 C 28.609375 11.074219 28.609375 11.074219 28.511719 11.164062 C 28.453125 11.222656 28.394531 11.277344 28.335938 11.335938 C 28.269531 11.398438 28.269531 11.398438 28.207031 11.464844 C 28.269531 11.511719 28.335938 11.558594 28.402344 11.609375 C 29.546875 12.480469 30.667969 13.449219 30.867188 14.9375 C 30.867188 15.09375 30.867188 15.09375 30.871094 15.25 C 30.136719 15.539062 29.378906 15.742188 28.617188 15.949219 C 29.21875 16.253906 29.828125 16.507812 30.460938 16.746094 C 30.550781 17.304688 30.3125 17.652344 30.03125 18.113281 C 29.625 18.609375 29.117188 18.710938 28.511719 18.839844 C 29.210938 19.765625 30.058594 20.074219 31.179688 20.335938 C 31.878906 20.515625 31.878906 20.515625 32 20.632812 C 32 21.683594 31.296875 22.582031 30.582031 23.320312 C 29.699219 24.125 28.609375 24.753906 27.382812 24.820312 C 27.617188 25.050781 27.824219 25.238281 28.101562 25.417969 C 28.144531 25.65625 28.144531 25.65625 28.101562 25.917969 C 27.597656 26.566406 26.863281 26.949219 26.050781 27.113281 C 25.273438 27.183594 24.542969 27.128906 23.792969 26.914062 C 23.726562 26.847656 23.660156 26.78125 23.589844 26.714844 C 23.628906 26.285156 23.816406 25.910156 23.988281 25.519531 C 25.101562 22.894531 24.804688 20.265625 23.898438 17.644531 C 23.828125 17.410156 23.757812 17.179688 23.691406 16.945312 C 23.640625 16.980469 23.589844 17.015625 23.539062 17.054688 C 23.199219 17.28125 22.914062 17.433594 22.511719 17.53125 C 21.953125 17.394531 21.65625 16.996094 21.332031 16.546875 C 21.332031 16.480469 21.332031 16.414062 21.332031 16.347656 C 21.246094 16.308594 21.246094 16.308594 21.15625 16.269531 C 20.898438 16.136719 20.707031 15.976562 20.488281 15.792969 C 19.253906 14.824219 17.652344 14.007812 16.101562 13.65625 C 16.152344 14.410156 16.296875 15.144531 16.78125 15.761719 C 16.964844 16.003906 16.957031 16.152344 16.921875 16.445312 C 16.761719 16.605469 16.605469 16.578125 16.378906 16.589844 C 15.03125 16.574219 13.671875 16.027344 12.515625 15.394531 C 12.175781 15.203125 12.175781 15.203125 11.796875 15.175781 C 11.574219 15.257812 11.433594 15.347656 11.253906 15.5 C 11.191406 15.550781 11.128906 15.601562 11.0625 15.65625 C 11 15.710938 10.933594 15.765625 10.867188 15.824219 C 10.796875 15.882812 10.730469 15.941406 10.660156 16 C 9.050781 17.402344 7.902344 19.105469 7.757812 21.25 C 7.707031 22.71875 8.023438 24.105469 8.523438 25.484375 C 8.789062 26.234375 8.789062 26.234375 8.617188 26.613281 C 7.738281 27.292969 6.527344 27.371094 5.457031 27.265625 C 4.5625 27.121094 3.691406 26.753906 2.972656 26.214844 C 2.941406 26.117188 2.90625 26.019531 2.871094 25.917969 C 3.140625 25.515625 3.472656 25.261719 3.871094 24.988281 C 3.972656 24.917969 4.074219 24.847656 4.179688 24.777344 C 4.253906 24.726562 4.332031 24.675781 4.410156 24.621094 C 4.320312 24.605469 4.226562 24.589844 4.132812 24.574219 C 2.390625 24.246094 1.347656 23.492188 0.339844 22.089844 C 0.144531 21.808594 0.015625 21.601562 -0.0546875 21.265625 C 0 21.03125 0 21.03125 0.207031 20.875 C 0.308594 20.828125 0.410156 20.78125 0.511719 20.734375 C 0.636719 20.671875 0.765625 20.605469 0.890625 20.542969 C 1.027344 20.476562 1.167969 20.40625 1.308594 20.339844 C 1.378906 20.304688 1.453125 20.269531 1.527344 20.234375 C 2.039062 19.988281 2.550781 19.753906 3.078125 19.535156 C 2.941406 19.5 2.941406 19.5 2.808594 19.464844 C 1.523438 19.101562 1.523438 19.101562 1.128906 18.738281 C 1.058594 18.503906 1.058594 18.503906 1.128906 18.242188 C 1.25 18.101562 1.371094 17.960938 1.496094 17.824219 C 1.765625 17.492188 1.972656 17.125 2.1875 16.757812 C 2.34375 16.492188 2.503906 16.222656 2.667969 15.949219 C 1.988281 15.949219 1.3125 15.949219 0.617188 15.949219 C 0.410156 15.550781 0.410156 15.550781 0.476562 15.289062 C 1.257812 13.558594 2.425781 12.179688 4 11.0625 C 3.933594 11.027344 3.867188 10.988281 3.796875 10.949219 C 3.710938 10.898438 3.625 10.847656 3.539062 10.796875 C 3.453125 10.746094 3.367188 10.695312 3.277344 10.644531 C 3.078125 10.464844 3.078125 10.464844 3.019531 10.21875 C 3.117188 9.789062 3.441406 9.667969 3.804688 9.441406 C 5.230469 8.625 6.863281 8.203125 8.511719 8.574219 C 8.511719 8.441406 8.511719 8.308594 8.511719 8.171875 C 8.636719 6.992188 9.445312 5.910156 10.15625 4.980469 C 10.460938 4.539062 10.691406 4.09375 10.722656 3.558594 C 10.769531 3.191406 10.769531 3.191406 10.972656 2.992188 Z M 10.972656 2.992188 "/>
<path style=" stroke:none;fill-rule:nonzero;fill:rgb(0.392157%,46.27451%,82.745099%);fill-opacity:1;" d="M 14.972656 23.425781 C 15.257812 23.667969 15.257812 23.667969 15.488281 23.921875 C 15.988281 24.085938 16.542969 24.125 17.042969 23.941406 C 17.304688 23.796875 17.503906 23.691406 17.640625 23.425781 C 19.15625 23.507812 20.769531 24.40625 21.847656 25.417969 C 22.15625 25.871094 22.101562 26.390625 22.050781 26.914062 C 21.875 27.34375 21.648438 27.5 21.230469 27.710938 C 20.167969 27.90625 19.039062 27.554688 18.007812 27.332031 C 16.835938 27.082031 15.757812 27.042969 14.582031 27.292969 C 14.449219 27.320312 14.449219 27.320312 14.3125 27.347656 C 13.804688 27.453125 13.296875 27.566406 12.789062 27.6875 C 12.199219 27.820312 11.734375 27.898438 11.152344 27.691406 C 10.761719 27.441406 10.617188 27.234375 10.507812 26.785156 C 10.425781 26.261719 10.4375 25.867188 10.722656 25.40625 C 11.542969 24.390625 13.625 23.222656 14.972656 23.425781 Z M 14.972656 23.425781 "/>
<path style=" stroke:none;fill-rule:nonzero;fill:rgb(0.392157%,46.27451%,82.745099%);fill-opacity:1;" d="M 20 19.335938 C 20.417969 19.652344 20.609375 19.933594 20.71875 20.433594 C 20.800781 21.089844 20.691406 21.578125 20.308594 22.128906 C 20.050781 22.402344 19.925781 22.421875 19.542969 22.476562 C 19.082031 22.414062 18.953125 22.277344 18.667969 21.929688 C 18.375 21.519531 18.332031 21.007812 18.378906 20.523438 C 18.488281 20.011719 18.703125 19.710938 19.078125 19.335938 C 19.40625 19.175781 19.648438 19.257812 20 19.335938 Z M 20 19.335938 "/>
<path style=" stroke:none;fill-rule:nonzero;fill:rgb(0.392157%,46.27451%,82.352942%);fill-opacity:1;" d="M 13.230469 19.335938 C 13.648438 19.652344 13.835938 19.933594 13.949219 20.433594 C 13.996094 21.023438 13.9375 21.503906 13.640625 22.027344 C 13.351562 22.339844 13.199219 22.417969 12.769531 22.484375 C 12.316406 22.414062 12.179688 22.273438 11.898438 21.929688 C 11.609375 21.519531 11.5625 21.007812 11.613281 20.523438 C 11.71875 20.011719 11.933594 19.710938 12.308594 19.335938 C 12.636719 19.175781 12.878906 19.257812 13.230469 19.335938 Z M 13.230469 19.335938 "/>
</g>
</svg>
