<svg width="32" height="32" viewBox="0 0 32 32" fill="none" xmlns="http://www.w3.org/2000/svg">
<path d="M0 16C0 7.16344 7.16344 0 16 0C24.8366 0 32 7.16344 32 16C32 24.8366 24.8366 32 16 32C7.16344 32 0 24.8366 0 16Z" fill="#D6E6FF"/>
<path d="M18.1116 16.623H18.1193C17.8039 16.6499 17.5231 16.7037 17.2808 16.7807C17.2808 16.7807 16.927 16.8922 16.3847 16.9691C16.2577 16.9883 16.0962 16.9883 16.0077 16.9883H15.9424C15.8539 16.9883 15.6885 16.9807 15.5654 16.9614C15.0231 16.873 14.6731 16.7499 14.6731 16.7499C14.4308 16.673 14.15 16.6153 13.8347 16.5807C12.1077 16.4037 11.3616 17.0614 11.3193 17.1845C11.277 17.3076 11.4654 18.9076 11.6039 19.1614C11.7385 19.4114 11.9462 19.5576 12.1347 19.6383C12.327 19.7191 13.9077 19.8768 14.4347 19.8037C14.9616 19.7307 15.0424 19.5537 15.1847 19.2845C15.2847 19.0922 15.5424 18.223 15.6847 17.7114C15.7193 17.6114 15.7231 17.4114 15.9654 17.396C16.2077 17.4153 16.2116 17.6191 16.2424 17.7191C16.3808 18.2307 16.6231 19.1076 16.7193 19.2999C16.8539 19.573 16.9347 19.7499 17.4616 19.8345C17.9847 19.9153 19.5693 19.7884 19.7616 19.7114C19.9539 19.6345 20.1616 19.4922 20.3 19.2422C20.4385 18.9922 20.6539 17.396 20.6154 17.273C20.577 17.146 19.8424 16.4768 18.1116 16.623Z" fill="#0250D9"/>
<path d="M23.5077 11.596H23.5116C23.0308 10.9845 22.4616 10.4422 21.8308 9.97681C22.4847 9.86143 22.9808 9.2922 22.9808 8.60758C22.9808 7.83835 22.3577 7.21143 21.5847 7.21143C20.8116 7.21143 20.1885 7.8345 20.1885 8.60758C20.1885 8.76143 20.2193 8.90758 20.2654 9.04604C19.2731 8.57681 18.1885 8.26912 17.0539 8.14989C15.1539 7.94989 13.3193 8.28835 11.7385 9.0345C11.7808 8.89989 11.8116 8.75758 11.8116 8.60758C11.8116 7.83835 11.1885 7.21143 10.4154 7.21143C9.64235 7.21143 9.01927 7.8345 9.01927 8.60758C9.01927 9.2922 9.51158 9.85758 10.1577 9.97681C8.36543 11.2999 7.11543 13.2268 6.83081 15.4614C6.56543 17.5268 7.15389 19.596 8.49235 21.2883C10.0077 23.2037 12.3616 24.4614 14.9462 24.7345C15.3077 24.773 15.6654 24.7922 16.0193 24.7922C20.6308 24.7922 24.6231 21.6614 25.1693 17.423C25.4347 15.3576 24.8462 13.2883 23.5077 11.596ZM16.0077 22.4076H16.0039C12.5347 22.4037 9.71158 20.0883 9.71158 17.2422C9.71158 16.3845 9.97312 15.5614 10.4462 14.8307C10.4885 15.0922 10.5654 15.3191 10.65 15.4883C10.7654 15.7191 10.9962 15.8537 11.2385 15.8537C11.3347 15.8537 11.4347 15.8345 11.527 15.7883C11.8539 15.6307 11.9885 15.2383 11.8385 14.9114C11.7577 14.7383 11.55 14.1653 12.0539 13.7268C12.5424 14.1691 13.2424 14.6883 14.0308 14.9422C15.5 15.4076 16.6116 15.1345 16.6577 15.123C16.8808 15.0653 17.0539 14.8999 17.1231 14.6807C17.1924 14.4614 17.1424 14.223 16.9924 14.0537C16.25 13.1999 15.8962 12.5768 15.7424 12.1999C18.75 12.6076 19.327 15.0037 19.35 15.1114C19.4154 15.4191 19.6885 15.6307 19.9924 15.6307C20.0385 15.6307 20.0808 15.6268 20.127 15.6153C20.4847 15.5422 20.7116 15.1922 20.6385 14.8345C20.5462 14.3883 20.3039 13.7845 19.8731 13.1807C21.3462 14.1268 22.3 15.596 22.3 17.246C22.3 20.0922 19.477 22.4076 16.0077 22.4076Z" fill="#0250D9"/>
</svg>
